Ozone 1993 DVDRip Xvid fasamoo LKRG


RIPPER                           : fasamoo
Format                           : AVI
Format/Info                      : Audio Video Interleave
Format profile                   : OpenDML
File size                        : 698 MiB
Duration                         : 1h 20mn
Overall bit rate                 : 1 209 Kbps
Writing application              : VirtualDubMod 1.5.4.1 (build 2178/release)
Writing library                  : VirtualDubMod build 2178/release
Language                         : English
Genre                            : Horror     

Video
ID                               : 0
Format                           : MPEG-4 Visual
Format profile                   : Advanced Simple@L5
Format settings, BVOP            : Yes
Format settings, QPel            : No
Format settings, GMC             : No warppoints
Format settings, Matrix          : Custom
Codec ID                         : XVID
Codec ID/Hint                    : XviD
Duration                         : 1h 20mn
Bit rate                         : 1 085 Kbps
Width                            : 512 pixels
Height                           : 368 pixels
Display aspect ratio             : 1.391
Frame rate                       : 23.976 fps
Color space                      : YUV
Chroma subsampling               : 4:2:0
Bit depth                        : 8 bits
Scan type                        : Progressive
Bits/(Pixel*Frame)               : 0.240
Stream size                      : 627 MiB (90%)
Writing library                  : XviD 1.2.1 (UTC 2008-12-04)

Audio
ID                               : 1
Format                           : MPEG Audio
Format version                   : Version 1
Format profile                   : Layer 3
Mode                             : Joint stereo
Mode extension                   : MS Stereo
Codec ID                         : 55
Codec ID/Hint                    : MP3
Duration                         : 1h 20mn
Bit rate mode                    : Variable
Bit rate                         : 115 Kbps
Channel(s)                       : 2 channels
Sampling rate                    : 48.0 KHz
Stream size                      : 66.2 MiB (9%)
Alignment                        : Aligned on interleaves
Interleave, duration             : 24 ms (0.58 video frame)
Interleave, preload duration     : 53 ms
Writing library                  : LAME3.98.2
Encoding settings                : -m j -V 4 -q 2 -lowpass 17 --abr 128

 PLOT

While ambushing a drug-dealer, Detective Eddie Boone (James Black) is injected in a fight against the dealer with a new drug called Ozone, which transforms the users in powerful zombies. His partner and friend Mike Weitz (Tom Hoover) is kidnapped by a group of Ozone addicted. Eddie tries to find Mike in the streets, fighting against the zombies and having several hallucinations due to the effect drug in his blood.


                                 IMBD
                     
                 http://www.imdb.com/title/tt0107764/
 
http://leetleech.org/images/45928621173980980417.png 
http://leetleech.org/images/03002793036603804238.png 
http://leetleech.org/images/96060995818405769820.png 
http://leetleech.org/images/56965945313884600314.png 
http://leetleech.org/images/45083489087368834897.png 
http://leetleech.org/images/70128664273283074235.png

